<svg width="29" height="29" viewBox="0 0 29 29" fill="none" xmlns="http://www.w3.org/2000/svg">
<circle cx="14.0433" cy="14.0433" r="14.0433" fill="#EEF7FB"/>
<path d="M12.5 23C13.3284 23 14 22.3284 14 21.5C14 20.6716 13.3284 20 12.5 20C11.6716 20 11 20.6716 11 21.5C11 22.3284 11.6716 23 12.5 23Z" fill="#202020"/>
<path d="M19.5 23C20.3284 23 21 22.3284 21 21.5C21 20.6716 20.3284 20 19.5 20C18.6716 20 18 20.6716 18 21.5C18 22.3284 18.6716 23 19.5 23Z" fill="#202020"/>
<path d="M16 15.99L20 10.99H17V6.98999H15V10.99H12L16 15.99Z" fill="#202020"/>
<path d="M19.31 17H12.67L8.18 6.23C8.02776 5.86507 7.77077 5.55344 7.44149 5.33452C7.11221 5.11559 6.72542 4.99918 6.33 5H4V7H6.33L11.08 18.38C11.155 18.5626 11.2824 18.719 11.4461 18.8293C11.6099 18.9396 11.8026 18.999 12 19H20C20.2014 18.9994 20.398 18.938 20.564 18.8238C20.7299 18.7096 20.8575 18.5479 20.93 18.36L23.76 11H21.62L19.31 17Z" fill="#202020"/>
</svg>
