<svg width="44" height="41" viewBox="0 0 44 41" fill="none" xmlns="http://www.w3.org/2000/svg">
<path fill-rule="evenodd" clip-rule="evenodd" d="M19.5525 0.0532032C12.0741 0.825406 5.50599 5.1465 2.18642 11.478C1.18448 13.389 0.519393 15.386 0.161214 17.5589C-0.0521949 18.8533 -0.0540853 21.949 0.157678 23.2165C1.10325 28.8748 4.12735 33.5688 9.04186 37.0066C12.0879 39.1374 15.6641 40.4597 19.5223 40.8817C21.078 41.0519 22.2383 41.0376 22.5778 40.844C23.2278 40.4734 23.3492 39.7644 22.9256 38.8128C22.7891 38.5061 20.0701 33.9882 16.8834 28.7731L11.0895 19.2909H13.3747C15.6181 19.2909 15.665 19.2941 15.9396 19.4667C16.2367 19.6534 16.3844 19.8712 17.7778 22.1774C21.1229 27.7135 24.8871 33.8131 25.0745 34.0006C25.3665 34.293 25.6725 34.2937 25.9596 34.0027C26.1495 33.8101 28.5731 29.8794 34.39 20.33C36.0726 17.5678 36.1275 17.4318 35.6836 17.1233C35.4884 16.9876 35.262 16.9812 31.3042 17.0002L27.1304 17.0201L27.8327 18.1555L28.5349 19.2909H30.3486C31.8747 19.2909 32.1552 19.308 32.1178 19.3993C32.0391 19.5912 25.7047 29.9481 25.6018 30.0531C25.4673 30.1905 25.5856 30.3748 21.3658 23.4475C19.3671 20.1664 17.6223 17.378 17.4884 17.251L17.245 17.0201L12.617 16.9982C10.0716 16.9861 7.90831 16.9949 7.80963 17.0176C7.5345 17.0809 7.37178 17.2757 7.37178 17.5418C7.37178 17.838 7.04332 17.2875 14.3605 29.255C17.6206 34.5871 20.2799 38.9566 20.27 38.9648C20.2601 38.9731 19.8469 38.9305 19.3516 38.87C17.3618 38.6274 15.1947 38.0065 13.3355 37.146C11.198 36.1569 9.54983 35.0243 7.77901 33.3277C6.13594 31.7536 5.11407 30.3975 4.07476 28.4123C3.0864 26.5245 2.49884 24.6782 2.21416 22.5659C2.05211 21.3638 2.10461 18.5923 2.30979 17.5205C3.08681 13.4604 4.8712 10.2295 7.90255 7.39444C11.7251 3.81939 16.502 1.95022 21.8158 1.95022C26.1455 1.95022 30.1462 3.20337 33.6688 5.66276C34.7098 6.38963 36.7823 8.32644 37.558 9.29724C39.0218 11.1295 40.0442 13.0106 40.7303 15.1343C41.2156 16.6364 41.5271 18.356 41.5271 19.5327C41.5271 20.4167 41.4618 20.3685 42.6598 20.3685H43.6925L43.6395 19.3343C43.5438 17.4682 43.228 15.9161 42.5544 14.001C40.2308 7.39498 34.2568 2.21763 27.042 0.557152C26.3856 0.406129 25.4597 0.226779 24.9844 0.158657C23.9552 0.011098 20.5922 -0.0541755 19.5525 0.0532032Z" fill="#1C5788"/>
</svg>
