<svg width="24" height="24" viewBox="0 0 24 24" fill="none" xmlns="http://www.w3.org/2000/svg">
<path d="M19.3866 7.34584V5.48605C19.3866 4.46037 18.5525 3.62625 17.5268 3.62625H5.43813C3.90008 3.62625 2.64844 4.87789 2.64844 6.41594V17.5747C2.64844 19.6214 4.31667 20.3644 5.43813 20.3644H19.3866C20.4123 20.3644 21.2464 19.5303 21.2464 18.5046V9.20564C21.2464 8.17996 20.4123 7.34584 19.3866 7.34584ZM17.5268 15.7149H15.667V11.9953H17.5268V15.7149ZM5.43813 7.34584C5.1987 7.33513 4.97263 7.23248 4.80699 7.05926C4.64135 6.88605 4.5489 6.65561 4.5489 6.41594C4.5489 6.17628 4.64135 5.94584 4.80699 5.77262C4.97263 5.59941 5.1987 5.49676 5.43813 5.48605H17.5268V7.34584H5.43813Z" fill="#003057"/>
</svg>
