<svg width="24" height="24" viewBox="0 0 24 24" fill="none" xmlns="http://www.w3.org/2000/svg">
<g clip-path="url(#clip0_1575_79)">
<rect width="24.4302" height="24.4302" rx="8" fill="#003057"/>
<path d="M19.1106 17.4957L16.2101 14.4767C15.8886 14.1421 15.8475 13.6335 16.0488 13.2153C16.5669 12.1393 16.795 10.8857 16.6255 9.56568C16.2723 6.82107 14.1111 4.58754 11.4716 4.23972C7.5473 3.72286 4.24738 7.15759 4.74398 11.2423C5.07824 13.9908 7.22439 16.242 9.86156 16.6079C11.1007 16.7802 12.279 16.5576 13.2966 16.0443C13.7369 15.8222 14.2832 15.8667 14.6249 16.2223L17.4803 19.1944C17.9304 19.6629 18.6603 19.6629 19.1104 19.1944C19.5601 18.7254 19.5601 17.9635 19.1106 17.4957ZM6.97359 10.4265C6.97359 8.30959 8.62816 6.58743 10.6619 6.58743C12.6957 6.58743 14.3503 8.30959 14.3503 10.4265C14.3503 12.5433 12.6957 14.2655 10.6619 14.2655C8.62816 14.2655 6.97359 12.5439 6.97359 10.4265Z" fill="white"/>
</g>
<defs>
<clipPath id="clip0_1575_79">
<rect width="24" height="24" fill="white"/>
</clipPath>
</defs>
</svg>
