<svg width="23" height="23" viewBox="0 0 23 23" fill="none" xmlns="http://www.w3.org/2000/svg">
<path d="M10.3232 19.8678C11.074 19.8678 11.6826 19.2592 11.6826 18.5084C11.6826 17.7577 11.074 17.149 10.3232 17.149C9.57248 17.149 8.96387 17.7577 8.96387 18.5084C8.96387 19.2592 9.57248 19.8678 10.3232 19.8678Z" fill="#003057"/>
<path d="M16.667 19.8678C17.4178 19.8678 18.0264 19.2592 18.0264 18.5084C18.0264 17.7577 17.4178 17.149 16.667 17.149C15.9162 17.149 15.3076 17.7577 15.3076 18.5084C15.3076 19.2592 15.9162 19.8678 16.667 19.8678Z" fill="#003057"/>
<path d="M13.4951 13.515L17.1201 8.98373H14.4014V5.35873H12.5889V8.98373H9.87012L13.4951 13.515Z" fill="#003057"/>
<path d="M16.4948 14.4303H10.4773L6.40824 4.66999C6.27028 4.33926 6.03738 4.05686 5.73896 3.85845C5.44055 3.66005 5.09003 3.55456 4.73168 3.5553H2.62012V5.3678H4.73168L9.03637 15.6809C9.10435 15.8464 9.21981 15.9881 9.36818 16.0881C9.51655 16.1881 9.6912 16.2419 9.87012 16.2428H17.1201C17.3027 16.2423 17.4808 16.1866 17.6312 16.0831C17.7816 15.9796 17.8972 15.8331 17.9629 15.6628L20.5276 8.9928H18.5882L16.4948 14.4303Z" fill="#003057"/>
</svg>
