<svg width="21" height="22" viewBox="0 0 21 22" fill="none" xmlns="http://www.w3.org/2000/svg">
<path d="M10.4438 2.41376C5.72586 2.41376 1.74072 6.39908 1.74072 11.1172C1.74072 15.8354 5.72586 19.8207 10.4438 19.8207C15.1617 19.8207 19.1469 15.8354 19.1469 11.1172C19.1469 6.39908 15.1617 2.41376 10.4438 2.41376ZM10.4438 6.7655C11.9468 6.7655 13.0547 7.87258 13.0547 9.37655C13.0547 10.8805 11.9468 11.9876 10.4438 11.9876C8.94164 11.9876 7.83287 10.8805 7.83287 9.37655C7.83287 7.87258 8.94164 6.7655 10.4438 6.7655ZM6.00001 15.2705C6.78067 14.1217 8.08265 13.3558 9.57349 13.3558H11.3141C12.8058 13.3558 14.1069 14.1217 14.8876 15.2705C13.7753 16.4612 12.1975 17.2097 10.4438 17.2097C8.69012 17.2097 7.11226 16.4612 6.00001 15.2705Z" fill="#003057"/>
</svg>
